<svg width="26" height="15" viewBox="0 0 26 15" fill="none" xmlns="http://www.w3.org/2000/svg">
<path fill-rule="evenodd" clip-rule="evenodd" d="M22.3767 9.35559C23.2392 10.1976 24.1495 10.9899 24.923 11.9168C25.2647 12.3287 25.5882 12.7538 25.8357 13.2318C26.1863 13.9114 25.8687 14.6592 25.2594 14.6998L21.4716 14.6981C20.4947 14.7791 19.7154 14.3859 19.0601 13.7179C18.5356 13.1837 18.05 12.6152 17.5457 12.0631C17.339 11.8374 17.1226 11.625 16.8641 11.4571C16.3471 11.1215 15.8982 11.2243 15.6027 11.7636C15.3018 12.3121 15.2335 12.9194 15.204 13.5307C15.1634 14.4227 14.8938 14.6572 13.9979 14.698C12.0831 14.7883 10.266 14.4986 8.57789 13.5327C7.08962 12.6812 5.93552 11.4791 4.93101 10.1182C2.9752 7.46821 1.47744 4.55632 0.131309 1.56285C-0.171694 0.888421 0.0498986 0.52639 0.794037 0.513576C2.02971 0.489572 3.26522 0.49128 4.50234 0.511868C5.00456 0.519214 5.33703 0.807268 5.53095 1.28172C6.19949 2.92556 7.01752 4.48952 8.04433 5.93918C8.31777 6.32513 8.5966 6.71109 8.99366 6.98274C9.43291 7.28352 9.76735 7.18383 9.974 6.69451C10.1051 6.38425 10.1625 6.05007 10.1921 5.71776C10.29 4.57452 10.3029 3.43324 10.1312 2.29401C10.0258 1.58301 9.62529 1.12274 8.91584 0.988198C8.5538 0.919602 8.60771 0.784887 8.783 0.578243C9.08745 0.22185 9.3738 0 9.94461 0H14.2254C14.8993 0.133007 15.0489 0.435754 15.1412 1.11386L15.1449 5.86888C15.1375 6.13139 15.276 6.91038 15.7488 7.08414C16.1273 7.20783 16.3767 6.90509 16.6038 6.66513C17.6287 5.57732 18.3602 4.29176 19.0137 2.96058C19.3037 2.37525 19.5531 1.76736 19.7947 1.15999C19.9738 0.709285 20.2547 0.487521 20.7624 0.497345L24.8824 0.501018C25.0046 0.501018 25.1282 0.502813 25.2465 0.523058C25.9407 0.641372 26.131 0.940019 25.9166 1.61795C25.5787 2.68158 24.9214 3.56795 24.2786 4.45842C23.5915 5.40912 22.8567 6.32727 22.1754 7.2836C21.5494 8.15691 21.5991 8.5971 22.3767 9.35559Z" fill="white"/>
</svg>
