<svg width="103" height="16" viewBox="0 0 103 16" fill="none" xmlns="http://www.w3.org/2000/svg">
<path d="M6.647 12.204C4.947 12.204 3.53033 11.66 2.397 10.572C1.26367 9.47267 0.697 8.06167 0.697 6.339C0.697 4.61633 1.26367 3.211 2.397 2.123C3.53033 1.02367 4.947 0.473999 6.647 0.473999C8.619 0.473999 10.1377 1.324 11.203 3.024L9.503 3.891C9.21967 3.40367 8.81733 3.007 8.296 2.701C7.786 2.395 7.23633 2.242 6.647 2.242C5.525 2.242 4.59 2.62733 3.842 3.398C3.10533 4.16867 2.737 5.149 2.737 6.339C2.737 7.529 3.10533 8.50933 3.842 9.28C4.59 10.0507 5.525 10.436 6.647 10.436C7.24767 10.436 7.803 10.283 8.313 9.977C8.823 9.671 9.21967 9.27433 9.503 8.787L11.203 9.654C10.115 11.354 8.59633 12.204 6.647 12.204ZM21.5669 12H19.2719L16.7559 7.767H14.7839V12H12.7949V0.660999H17.7759C18.8866 0.660999 19.7819 0.989666 20.4619 1.647C21.1419 2.30433 21.4819 3.16 21.4819 4.214C21.4819 5.166 21.2212 5.931 20.6999 6.509C20.1786 7.07567 19.5439 7.42133 18.7959 7.546L21.5669 12ZM17.5039 6.016C18.0706 6.016 18.5352 5.85167 18.8979 5.523C19.2606 5.19433 19.4419 4.758 19.4419 4.214C19.4419 3.67 19.2606 3.23367 18.8979 2.905C18.5352 2.57633 18.0706 2.412 17.5039 2.412H14.7839V6.016H17.5039ZM35.2507 12H33.2617V3.585L29.7767 12H28.9267L25.4587 3.585V12H23.4697V0.660999H26.2747L29.3517 8.124L32.4457 0.660999H35.2507V12ZM39.653 12H37.664V0.660999H42.645C43.7897 0.660999 44.6907 1.001 45.348 1.681C46.0167 2.361 46.351 3.20533 46.351 4.214C46.351 5.21133 46.0167 6.05567 45.348 6.747C44.6907 7.427 43.7897 7.767 42.645 7.767H39.653V12ZM42.373 6.016C42.9397 6.016 43.4044 5.85167 43.767 5.523C44.1297 5.19433 44.311 4.758 44.311 4.214C44.311 3.67 44.1297 3.23367 43.767 2.905C43.4044 2.57633 42.9397 2.412 42.373 2.412H39.653V6.016H42.373Z" fill="url(#paint0_linear_38_202)"/>
<path d="M64.154 12H62.165V3.585L58.68 12H57.83L54.362 3.585V12H52.373V0.660999H55.178L58.255 8.124L61.349 0.660999H64.154V12ZM70.2224 12.204C68.953 12.204 67.933 11.7903 67.1624 10.963C66.3917 10.1243 66.0064 9.09867 66.0064 7.886C66.0064 6.67333 66.3917 5.65333 67.1624 4.826C67.933 3.99867 68.953 3.585 70.2224 3.585C71.503 3.585 72.5287 3.99867 73.2994 4.826C74.07 5.65333 74.4554 6.67333 74.4554 7.886C74.4554 9.11 74.07 10.1357 73.2994 10.963C72.5287 11.7903 71.503 12.204 70.2224 12.204ZM70.2224 10.623C70.959 10.623 71.537 10.3623 71.9564 9.841C72.387 9.30833 72.6024 8.65667 72.6024 7.886C72.6024 7.12667 72.387 6.48633 71.9564 5.965C71.537 5.43233 70.959 5.166 70.2224 5.166C69.497 5.166 68.919 5.43233 68.4884 5.965C68.069 6.48633 67.8594 7.12667 67.8594 7.886C67.8594 8.65667 68.069 9.30833 68.4884 9.841C68.919 10.3623 69.497 10.623 70.2224 10.623ZM83.5885 12H81.8035V6.866C81.8035 5.73267 81.2538 5.166 80.1545 5.166C79.7238 5.166 79.3215 5.27367 78.9475 5.489C78.5735 5.70433 78.2731 5.965 78.0465 6.271V12H76.2615V3.789H78.0465V4.911C78.3525 4.54833 78.7605 4.23667 79.2705 3.976C79.7805 3.71533 80.3358 3.585 80.9365 3.585C81.8091 3.585 82.4665 3.81167 82.9085 4.265C83.3618 4.71833 83.5885 5.37 83.5885 6.22V12ZM89.698 12.204C88.4513 12.204 87.42 11.8073 86.604 11.014C85.7993 10.2093 85.397 9.16667 85.397 7.886C85.397 6.68467 85.788 5.67033 86.57 4.843C87.3633 4.00433 88.3606 3.585 89.562 3.585C90.7746 3.585 91.7493 4.00433 92.486 4.843C93.234 5.68167 93.608 6.75267 93.608 8.056V8.481H87.267C87.335 9.127 87.6013 9.66533 88.066 10.096C88.5306 10.5267 89.137 10.742 89.885 10.742C90.3043 10.742 90.7236 10.6627 91.143 10.504C91.5736 10.3453 91.9306 10.1243 92.214 9.841L93.03 11.014C92.2026 11.8073 91.092 12.204 89.698 12.204ZM91.874 7.223C91.8513 6.65633 91.6416 6.152 91.245 5.71C90.8596 5.268 90.2986 5.047 89.562 5.047C88.8593 5.047 88.3096 5.268 87.913 5.71C87.5163 6.14067 87.2953 6.645 87.25 7.223H91.874ZM95.0129 15.213L95.2849 13.615C95.4889 13.7057 95.7155 13.751 95.9649 13.751C96.5429 13.751 96.9339 13.513 97.1379 13.037L97.5459 12.102L94.1799 3.789H96.0839L98.4809 9.943L100.878 3.789H102.799L98.8379 13.479C98.3505 14.6917 97.4099 15.3093 96.0159 15.332C95.6419 15.332 95.3075 15.2923 95.0129 15.213Z" fill="black"/>
<defs>
<linearGradient id="paint0_linear_38_202" x1="29.5743" y1="8.94186" x2="94.4966" y2="-18.3601" gradientUnits="userSpaceOnUse">
<stop stop-color="#3563FF"/>
<stop offset="1" stop-color="#8BA6FF"/>
</linearGradient>
</defs>
</svg>
