<svg width="18" height="20" viewBox="0 0 18 20" fill="none" xmlns="http://www.w3.org/2000/svg">
<path fill-rule="evenodd" clip-rule="evenodd" d="M11.75 0.833328C14.7876 0.833328 17.25 3.29576 17.25 6.33333C17.25 9.30186 14.8982 11.7211 11.9562 11.8295L11.75 11.8333H7.16667V13.6667H10.8333C11.3396 13.6667 11.75 14.0771 11.75 14.5833C11.75 15.0896 11.3396 15.5 10.8333 15.5H7.16667V18.25C7.16667 18.7563 6.75626 19.1667 6.25 19.1667C5.74374 19.1667 5.33333 18.7563 5.33333 18.25V15.5H1.66667C1.16041 15.5 0.75 15.0896 0.75 14.5833C0.75 14.0771 1.16041 13.6667 1.66667 13.6667H5.33333V11.8333H1.66667C1.16041 11.8333 0.75 11.4229 0.75 10.9167C0.75 10.4466 1.10387 10.0591 1.55976 10.0062L1.66667 9.99999H5.33333V1.74999C5.33333 1.24373 5.74374 0.833328 6.25 0.833328H11.75ZM11.75 2.66666H7.16667V9.99999H11.75C13.775 9.99999 15.4167 8.35837 15.4167 6.33333C15.4167 4.36965 13.873 2.76651 11.933 2.67115L11.75 2.66666Z" fill="white"/>
</svg>
