<svg width="18" height="23" viewBox="0 0 18 23" fill="none" xmlns="http://www.w3.org/2000/svg">
<path d="M9.75 10.5625V13.8125H8.125V10.5625C8.125 10.1148 8.48981 9.75 8.9375 9.75C9.38519 9.75 9.75 10.1148 9.75 10.5625ZM1.55431 6.5H16.3207L17.1608 5.65987C17.6183 5.20244 17.875 4.5825 17.875 3.93575V0.8125C17.875 0.364 17.511 0 17.0625 0H15.4375C14.989 0 14.625 0.364 14.625 0.8125V1.625H13V0.8125C13 0.364 12.636 0 12.1875 0H10.5625C10.114 0 9.75 0.364 9.75 0.8125V1.625H8.125V0.8125C8.125 0.364 7.761 0 7.3125 0H5.6875C5.239 0 4.875 0.364 4.875 0.8125V1.625H3.25V0.8125C3.25 0.364 2.886 0 2.4375 0H0.8125C0.364 0 0 0.364 0 0.8125V3.93575C0 4.5825 0.25675 5.20244 0.714188 5.65987L1.55431 6.5ZM16.4044 7.3125L17.6207 20.0817C17.7572 21.5126 16.6319 22.75 15.1946 22.75H2.68044C1.24312 22.75 0.117812 21.5126 0.2535 20.0817L1.47062 7.3125H16.4044ZM10.5625 10.5625C10.5625 9.66469 9.83531 8.9375 8.9375 8.9375C8.03969 8.9375 7.3125 9.66469 7.3125 10.5625V13.8125C7.3125 14.261 7.6765 14.625 8.125 14.625H9.75C10.1985 14.625 10.5625 14.261 10.5625 13.8125V10.5625Z" fill="url(#paint0_linear_305_2)"/>
<defs>
<linearGradient id="paint0_linear_305_2" x1="5.13243" y1="14.0203" x2="18.3319" y2="13.1311" gradientUnits="userSpaceOnUse">
<stop stop-color="#3563FF"/>
<stop offset="1" stop-color="#8BA6FF"/>
</linearGradient>
</defs>
</svg>
