<svg width="34" height="34" viewBox="0 0 34 34" fill="none" xmlns="http://www.w3.org/2000/svg">
<path d="M0.950445 22.1244C-0.677371 25.1552 -0.214386 29.0216 2.34059 31.5765L2.42347 31.6594C4.97838 34.2143 8.84475 34.6774 11.8756 33.0495L0.950445 22.1244Z" fill="white"/>
<path d="M10.9035 11.7C10.8338 11.765 10.7647 11.8308 10.6968 11.8986L2.34022 20.2553C2.27236 20.3231 2.20648 20.3923 2.1416 20.462L13.5376 31.858C13.6073 31.7931 13.6765 31.7273 13.7444 31.6594L22.1009 23.3029C22.1688 23.235 22.2347 23.1659 22.2995 23.0962L10.9035 11.7ZM11.2639 22.1031L12.0861 23.5304L9.65759 24.8072L15 22.1031L11.2639 21L10.8719 19.7935L12.0861 23.5304L13.3002 19.7935L12.0861 21.8247L14.0507 22.1031H11.2639Z" fill="white"/>
<path d="M34.0002 12.8621L26.3736 9.01797L22.7178 12.6738C22.5279 12.4342 22.3228 12.2028 22.1015 11.9815L22.0187 11.8986C21.7973 11.6773 21.5659 11.4723 21.3263 11.2823L24.9821 7.62643L21.1381 0L14.9777 6.16037L16.6938 9.56502C15.2766 9.50612 13.8471 9.82055 12.5664 10.5084L23.4916 21.4336C24.1795 20.153 24.494 18.7234 24.435 17.3063L27.8396 19.0224L34.0002 12.8621Z" fill="white"/>
</svg>
