<svg width="42" height="36" viewBox="0 0 42 36" fill="none" xmlns="http://www.w3.org/2000/svg">
<path d="M35 0.950012H34.3H33.6C33.2136 0.950012 32.9 1.26291 32.9 1.65001C32.9 2.03711 33.2136 2.35001 33.6 2.35001H34.3V6.55001H28.7H28H27.3C26.9136 6.55001 26.6 6.86291 26.6 7.25001C26.6 7.63711 26.9136 7.95001 27.3 7.95001H28V12.15H22.4H21.7H21C20.6136 12.15 20.3 12.4629 20.3 12.85C20.3 13.2371 20.6136 13.55 21 13.55H21.7V17.75H16.1H15.4H14.7C14.3136 17.75 14 18.0629 14 18.45C14 18.8371 14.3136 19.15 14.7 19.15H15.4V23.35H9.8H9.1H8.4C8.0136 23.35 7.7 23.6629 7.7 24.05C7.7 24.4371 8.0136 24.75 8.4 24.75H9.1V28.95H3.5H2.8H2.1C1.7136 28.95 1.4 29.2629 1.4 29.65C1.4 30.0371 1.7136 30.35 2.1 30.35H2.8V34.55H0.7C0.3136 34.55 0 34.8629 0 35.25C0 35.6371 0.3136 35.95 0.7 35.95H2.8H3.5H42V0.950012H35ZM15.4 35.25C15.0136 35.25 14.7 34.9364 14.7 34.55C14.7 34.1636 15.0136 33.85 15.4 33.85C15.7864 33.85 16.1 34.1636 16.1 34.55C16.1 34.9364 15.7864 35.25 15.4 35.25ZM17.5 33.15C17.1136 33.15 16.8 32.8364 16.8 32.45C16.8 32.0636 17.1136 31.75 17.5 31.75C17.8864 31.75 18.2 32.0636 18.2 32.45C18.2 32.8364 17.8864 33.15 17.5 33.15ZM19.6 35.25C19.2136 35.25 18.9 34.9364 18.9 34.55C18.9 34.1636 19.2136 33.85 19.6 33.85C19.9864 33.85 20.3 34.1636 20.3 34.55C20.3 34.9364 19.9864 35.25 19.6 35.25ZM19.6 31.05C19.2136 31.05 18.9 30.7364 18.9 30.35C18.9 29.9636 19.2136 29.65 19.6 29.65C19.9864 29.65 20.3 29.9636 20.3 30.35C20.3 30.7364 19.9864 31.05 19.6 31.05ZM21.7 33.15C21.3136 33.15 21 32.8364 21 32.45C21 32.0636 21.3136 31.75 21.7 31.75C22.0864 31.75 22.4 32.0636 22.4 32.45C22.4 32.8364 22.0864 33.15 21.7 33.15ZM21.7 28.95C21.3136 28.95 21 28.6364 21 28.25C21 27.8636 21.3136 27.55 21.7 27.55C22.0864 27.55 22.4 27.8636 22.4 28.25C22.4 28.6364 22.0864 28.95 21.7 28.95ZM23.8 35.25C23.4136 35.25 23.1 34.9364 23.1 34.55C23.1 34.1636 23.4136 33.85 23.8 33.85C24.1864 33.85 24.5 34.1636 24.5 34.55C24.5 34.9364 24.1864 35.25 23.8 35.25ZM23.8 31.05C23.4136 31.05 23.1 30.7364 23.1 30.35C23.1 29.9636 23.4136 29.65 23.8 29.65C24.1864 29.65 24.5 29.9636 24.5 30.35C24.5 30.7364 24.1864 31.05 23.8 31.05ZM23.8 26.85C23.4136 26.85 23.1 26.5364 23.1 26.15C23.1 25.7636 23.4136 25.45 23.8 25.45C24.1864 25.45 24.5 25.7636 24.5 26.15C24.5 26.5364 24.1864 26.85 23.8 26.85ZM25.9 33.15C25.5136 33.15 25.2 32.8364 25.2 32.45C25.2 32.0636 25.5136 31.75 25.9 31.75C26.2864 31.75 26.6 32.0636 26.6 32.45C26.6 32.8364 26.2864 33.15 25.9 33.15ZM25.9 28.95C25.5136 28.95 25.2 28.6364 25.2 28.25C25.2 27.8636 25.5136 27.55 25.9 27.55C26.2864 27.55 26.6 27.8636 26.6 28.25C26.6 28.6364 26.2864 28.95 25.9 28.95ZM25.9 24.75C25.5136 24.75 25.2 24.4364 25.2 24.05C25.2 23.6636 25.5136 23.35 25.9 23.35C26.2864 23.35 26.6 23.6636 26.6 24.05C26.6 24.4364 26.2864 24.75 25.9 24.75ZM28 35.25C27.6136 35.25 27.3 34.9364 27.3 34.55C27.3 34.1636 27.6136 33.85 28 33.85C28.3864 33.85 28.7 34.1636 28.7 34.55C28.7 34.9364 28.3864 35.25 28 35.25ZM28 31.05C27.6136 31.05 27.3 30.7364 27.3 30.35C27.3 29.9636 27.6136 29.65 28 29.65C28.3864 29.65 28.7 29.9636 28.7 30.35C28.7 30.7364 28.3864 31.05 28 31.05ZM28 26.85C27.6136 26.85 27.3 26.5364 27.3 26.15C27.3 25.7636 27.6136 25.45 28 25.45C28.3864 25.45 28.7 25.7636 28.7 26.15C28.7 26.5364 28.3864 26.85 28 26.85ZM28 22.65C27.6136 22.65 27.3 22.3364 27.3 21.95C27.3 21.5636 27.6136 21.25 28 21.25C28.3864 21.25 28.7 21.5636 28.7 21.95C28.7 22.3364 28.3864 22.65 28 22.65ZM30.1 33.15C29.7136 33.15 29.4 32.8364 29.4 32.45C29.4 32.0636 29.7136 31.75 30.1 31.75C30.4864 31.75 30.8 32.0636 30.8 32.45C30.8 32.8364 30.4864 33.15 30.1 33.15ZM30.1 28.95C29.7136 28.95 29.4 28.6364 29.4 28.25C29.4 27.8636 29.7136 27.55 30.1 27.55C30.4864 27.55 30.8 27.8636 30.8 28.25C30.8 28.6364 30.4864 28.95 30.1 28.95ZM30.1 24.75C29.7136 24.75 29.4 24.4364 29.4 24.05C29.4 23.6636 29.7136 23.35 30.1 23.35C30.4864 23.35 30.8 23.6636 30.8 24.05C30.8 24.4364 30.4864 24.75 30.1 24.75ZM30.1 20.55C29.7136 20.55 29.4 20.2364 29.4 19.85C29.4 19.4636 29.7136 19.15 30.1 19.15C30.4864 19.15 30.8 19.4636 30.8 19.85C30.8 20.2364 30.4864 20.55 30.1 20.55ZM32.2 35.25C31.8136 35.25 31.5 34.9364 31.5 34.55C31.5 34.1636 31.8136 33.85 32.2 33.85C32.5864 33.85 32.9 34.1636 32.9 34.55C32.9 34.9364 32.5864 35.25 32.2 35.25ZM32.2 31.05C31.8136 31.05 31.5 30.7364 31.5 30.35C31.5 29.9636 31.8136 29.65 32.2 29.65C32.5864 29.65 32.9 29.9636 32.9 30.35C32.9 30.7364 32.5864 31.05 32.2 31.05ZM32.2 26.85C31.8136 26.85 31.5 26.5364 31.5 26.15C31.5 25.7636 31.8136 25.45 32.2 25.45C32.5864 25.45 32.9 25.7636 32.9 26.15C32.9 26.5364 32.5864 26.85 32.2 26.85ZM32.2 22.65C31.8136 22.65 31.5 22.3364 31.5 21.95C31.5 21.5636 31.8136 21.25 32.2 21.25C32.5864 21.25 32.9 21.5636 32.9 21.95C32.9 22.3364 32.5864 22.65 32.2 22.65ZM32.2 18.45C31.8136 18.45 31.5 18.1364 31.5 17.75C31.5 17.3636 31.8136 17.05 32.2 17.05C32.5864 17.05 32.9 17.3636 32.9 17.75C32.9 18.1364 32.5864 18.45 32.2 18.45ZM34.3 33.15C33.9136 33.15 33.6 32.8364 33.6 32.45C33.6 32.0636 33.9136 31.75 34.3 31.75C34.6864 31.75 35 32.0636 35 32.45C35 32.8364 34.6864 33.15 34.3 33.15ZM34.3 28.95C33.9136 28.95 33.6 28.6364 33.6 28.25C33.6 27.8636 33.9136 27.55 34.3 27.55C34.6864 27.55 35 27.8636 35 28.25C35 28.6364 34.6864 28.95 34.3 28.95ZM34.3 24.75C33.9136 24.75 33.6 24.4364 33.6 24.05C33.6 23.6636 33.9136 23.35 34.3 23.35C34.6864 23.35 35 23.6636 35 24.05C35 24.4364 34.6864 24.75 34.3 24.75ZM34.3 20.55C33.9136 20.55 33.6 20.2364 33.6 19.85C33.6 19.4636 33.9136 19.15 34.3 19.15C34.6864 19.15 35 19.4636 35 19.85C35 20.2364 34.6864 20.55 34.3 20.55ZM34.3 16.35C33.9136 16.35 33.6 16.0364 33.6 15.65C33.6 15.2636 33.9136 14.95 34.3 14.95C34.6864 14.95 35 15.2636 35 15.65C35 16.0364 34.6864 16.35 34.3 16.35ZM36.4 35.25C36.0136 35.25 35.7 34.9364 35.7 34.55C35.7 34.1636 36.0136 33.85 36.4 33.85C36.7864 33.85 37.1 34.1636 37.1 34.55C37.1 34.9364 36.7864 35.25 36.4 35.25ZM36.4 31.05C36.0136 31.05 35.7 30.7364 35.7 30.35C35.7 29.9636 36.0136 29.65 36.4 29.65C36.7864 29.65 37.1 29.9636 37.1 30.35C37.1 30.7364 36.7864 31.05 36.4 31.05ZM36.4 26.85C36.0136 26.85 35.7 26.5364 35.7 26.15C35.7 25.7636 36.0136 25.45 36.4 25.45C36.7864 25.45 37.1 25.7636 37.1 26.15C37.1 26.5364 36.7864 26.85 36.4 26.85ZM36.4 22.65C36.0136 22.65 35.7 22.3364 35.7 21.95C35.7 21.5636 36.0136 21.25 36.4 21.25C36.7864 21.25 37.1 21.5636 37.1 21.95C37.1 22.3364 36.7864 22.65 36.4 22.65ZM36.4 18.45C36.0136 18.45 35.7 18.1364 35.7 17.75C35.7 17.3636 36.0136 17.05 36.4 17.05C36.7864 17.05 37.1 17.3636 37.1 17.75C37.1 18.1364 36.7864 18.45 36.4 18.45ZM36.4 14.25C36.0136 14.25 35.7 13.9364 35.7 13.55C35.7 13.1636 36.0136 12.85 36.4 12.85C36.7864 12.85 37.1 13.1636 37.1 13.55C37.1 13.9364 36.7864 14.25 36.4 14.25ZM38.5 33.15C38.1136 33.15 37.8 32.8364 37.8 32.45C37.8 32.0636 38.1136 31.75 38.5 31.75C38.8864 31.75 39.2 32.0636 39.2 32.45C39.2 32.8364 38.8864 33.15 38.5 33.15ZM38.5 28.95C38.1136 28.95 37.8 28.6364 37.8 28.25C37.8 27.8636 38.1136 27.55 38.5 27.55C38.8864 27.55 39.2 27.8636 39.2 28.25C39.2 28.6364 38.8864 28.95 38.5 28.95ZM38.5 24.75C38.1136 24.75 37.8 24.4364 37.8 24.05C37.8 23.6636 38.1136 23.35 38.5 23.35C38.8864 23.35 39.2 23.6636 39.2 24.05C39.2 24.4364 38.8864 24.75 38.5 24.75ZM38.5 20.55C38.1136 20.55 37.8 20.2364 37.8 19.85C37.8 19.4636 38.1136 19.15 38.5 19.15C38.8864 19.15 39.2 19.4636 39.2 19.85C39.2 20.2364 38.8864 20.55 38.5 20.55ZM38.5 16.35C38.1136 16.35 37.8 16.0364 37.8 15.65C37.8 15.2636 38.1136 14.95 38.5 14.95C38.8864 14.95 39.2 15.2636 39.2 15.65C39.2 16.0364 38.8864 16.35 38.5 16.35ZM38.5 12.15C38.1136 12.15 37.8 11.8364 37.8 11.45C37.8 11.0636 38.1136 10.75 38.5 10.75C38.8864 10.75 39.2 11.0636 39.2 11.45C39.2 11.8364 38.8864 12.15 38.5 12.15ZM40.6 35.25C40.2136 35.25 39.9 34.9364 39.9 34.55C39.9 34.1636 40.2136 33.85 40.6 33.85C40.9864 33.85 41.3 34.1636 41.3 34.55C41.3 34.9364 40.9864 35.25 40.6 35.25ZM40.6 31.05C40.2136 31.05 39.9 30.7364 39.9 30.35C39.9 29.9636 40.2136 29.65 40.6 29.65C40.9864 29.65 41.3 29.9636 41.3 30.35C41.3 30.7364 40.9864 31.05 40.6 31.05ZM40.6 26.85C40.2136 26.85 39.9 26.5364 39.9 26.15C39.9 25.7636 40.2136 25.45 40.6 25.45C40.9864 25.45 41.3 25.7636 41.3 26.15C41.3 26.5364 40.9864 26.85 40.6 26.85ZM40.6 22.65C40.2136 22.65 39.9 22.3364 39.9 21.95C39.9 21.5636 40.2136 21.25 40.6 21.25C40.9864 21.25 41.3 21.5636 41.3 21.95C41.3 22.3364 40.9864 22.65 40.6 22.65ZM40.6 18.45C40.2136 18.45 39.9 18.1364 39.9 17.75C39.9 17.3636 40.2136 17.05 40.6 17.05C40.9864 17.05 41.3 17.3636 41.3 17.75C41.3 18.1364 40.9864 18.45 40.6 18.45ZM40.6 14.25C40.2136 14.25 39.9 13.9364 39.9 13.55C39.9 13.1636 40.2136 12.85 40.6 12.85C40.9864 12.85 41.3 13.1636 41.3 13.55C41.3 13.9364 40.9864 14.25 40.6 14.25ZM40.6 10.05C40.2136 10.05 39.9 9.73641 39.9 9.35001C39.9 8.96361 40.2136 8.65001 40.6 8.65001C40.9864 8.65001 41.3 8.96361 41.3 9.35001C41.3 9.73641 40.9864 10.05 40.6 10.05Z" fill="white"/>
</svg>
