<svg width="29" height="29" viewBox="0 0 29 29" fill="none" xmlns="http://www.w3.org/2000/svg">
<circle cx="14.5" cy="14.5" r="14.5" fill="url(#paint0_linear_303_5)"/>
<path d="M11.635 19H9.88V11.275L8.245 12.97L7.225 11.905L10.105 8.995H11.635V19ZM20.6932 19H13.4482V17.62C15.5382 16.04 16.9582 14.87 17.7082 14.11C18.4682 13.34 18.8482 12.615 18.8482 11.935C18.8482 11.445 18.6682 11.07 18.3082 10.81C17.9582 10.54 17.5332 10.405 17.0332 10.405C15.9332 10.405 15.0332 10.805 14.3332 11.605L13.3132 10.45C13.7432 9.93 14.2832 9.535 14.9332 9.265C15.5932 8.985 16.2832 8.845 17.0032 8.845C18.0232 8.845 18.8832 9.12 19.5832 9.67C20.2832 10.22 20.6332 10.975 20.6332 11.935C20.6332 12.795 20.2732 13.65 19.5532 14.5C18.8332 15.35 17.7332 16.335 16.2532 17.455H20.6932V19Z" fill="white"/>
<defs>
<linearGradient id="paint0_linear_303_5" x1="8.05556" y1="16.4773" x2="26.9578" y2="15.9441" gradientUnits="userSpaceOnUse">
<stop stop-color="#A81BFF"/>
<stop offset="1" stop-color="#FE6F6F"/>
</linearGradient>
</defs>
</svg>
