<svg width="144" height="54" viewBox="0 0 144 54" fill="none" xmlns="http://www.w3.org/2000/svg">
<path d="M13.545 32.42C9.92833 32.42 6.91833 31.3 4.515 29.06C2.11167 26.7967 0.91 23.8917 0.91 20.345C0.91 16.775 2.1 13.87 4.48 11.63C6.88333 9.39 9.905 8.27 13.545 8.27C18.235 8.27 21.63 10.3583 23.73 14.535L18.55 16.985C18.1533 16.0283 17.4883 15.2233 16.555 14.57C15.645 13.9167 14.6417 13.59 13.545 13.59C11.655 13.59 10.0917 14.2433 8.855 15.55C7.64167 16.8333 7.035 18.4317 7.035 20.345C7.035 22.2583 7.64167 23.8683 8.855 25.175C10.0917 26.4583 11.655 27.1 13.545 27.1C14.6417 27.1 15.645 26.7733 16.555 26.12C17.4883 25.4667 18.1533 24.6617 18.55 23.705L23.73 26.155C22.8433 27.9283 21.56 29.4217 19.88 30.635C18.2233 31.825 16.1117 32.42 13.545 32.42ZM46.2484 32H39.3534L35.4334 24.16H32.3534V32H26.3334V8.655H38.0234C40.5434 8.655 42.5267 9.39 43.9734 10.86C45.4201 12.33 46.1434 14.185 46.1434 16.425C46.1434 18.2917 45.6767 19.82 44.7434 21.01C43.8334 22.1767 42.7484 22.9817 41.4884 23.425L46.2484 32ZM37.1134 18.91C37.9301 18.91 38.6184 18.6883 39.1784 18.245C39.7384 17.8017 40.0184 17.1833 40.0184 16.39C40.0184 15.62 39.7384 15.0133 39.1784 14.57C38.6184 14.1267 37.9301 13.905 37.1134 13.905H32.3534V18.91H37.1134ZM75.968 32H69.948V16.81L64.033 32H61.373L55.493 16.81V32H49.473V8.655H57.838L62.703 21.325L67.603 8.655H75.968V32ZM86.1864 32H80.1664V8.655H91.8564C94.3764 8.655 96.3597 9.40166 97.8064 10.895C99.2531 12.365 99.9764 14.2083 99.9764 16.425C99.9764 18.6183 99.2531 20.4617 97.8064 21.955C96.3597 23.425 94.3764 24.16 91.8564 24.16H86.1864V32ZM91.0514 18.91C91.8681 18.91 92.5331 18.6883 93.0464 18.245C93.5831 17.8017 93.8514 17.195 93.8514 16.425C93.8514 15.6317 93.5831 15.0133 93.0464 14.57C92.5331 14.1267 91.8681 13.905 91.0514 13.905H86.1864V18.91H91.0514Z" fill="url(#paint0_linear_5_81)"/>
<path d="M11.234 50H10.072V42.314L6.894 50H6.418L3.254 42.314V50H2.092V40.662H3.758L6.656 47.69L9.568 40.662H11.234V50ZM30.1283 50.168C28.7563 50.168 27.641 49.7107 26.7823 48.796C25.9236 47.8813 25.4943 46.7287 25.4943 45.338C25.4943 43.9473 25.9236 42.7947 26.7823 41.88C27.641 40.9653 28.7563 40.508 30.1283 40.508C31.491 40.508 32.6016 40.9653 33.4603 41.88C34.3283 42.7947 34.7623 43.9473 34.7623 45.338C34.7623 46.7287 34.3283 47.8813 33.4603 48.796C32.6016 49.7107 31.491 50.168 30.1283 50.168ZM30.1283 49.132C31.155 49.132 31.981 48.7773 32.6063 48.068C33.241 47.3493 33.5583 46.4393 33.5583 45.338C33.5583 44.2273 33.241 43.3173 32.6063 42.608C31.981 41.8987 31.155 41.544 30.1283 41.544C29.0923 41.544 28.2616 41.8987 27.6363 42.608C27.011 43.3173 26.6983 44.2273 26.6983 45.338C26.6983 46.4393 27.011 47.3493 27.6363 48.068C28.2616 48.7773 29.0923 49.132 30.1283 49.132ZM56.7654 50H55.6454L50.1994 42.552V50H49.0374V40.662H50.2274L55.6034 47.956V40.662H56.7654V50ZM77.5275 50H71.4095V40.662H77.5275V41.698H72.5715V44.708H77.4295V45.744H72.5715V48.964H77.5275V50ZM95.7182 50H94.5562V46.052L90.8742 40.662H92.2322L95.1302 45.002L98.0282 40.662H99.3862L95.7182 46.052V50Z" fill="black"/>
<path opacity="0.15" d="M108.565 13.865C108.355 14.065 108.11 14.165 107.83 14.165C107.55 14.165 107.305 14.065 107.095 13.865C106.885 13.655 106.78 13.405 106.78 13.115C106.78 12.825 106.885 12.58 107.095 12.38C107.305 12.17 107.55 12.065 107.83 12.065C108.11 12.065 108.355 12.17 108.565 12.38C108.775 12.58 108.88 12.825 108.88 13.115C108.88 13.405 108.775 13.655 108.565 13.865ZM115.542 14.18C114.042 14.18 112.792 13.7 111.792 12.74C110.792 11.77 110.292 10.525 110.292 9.005C110.292 7.485 110.792 6.245 111.792 5.285C112.792 4.315 114.042 3.83 115.542 3.83C117.282 3.83 118.622 4.58 119.562 6.08L118.062 6.845C117.812 6.415 117.457 6.065 116.997 5.795C116.547 5.525 116.062 5.39 115.542 5.39C114.552 5.39 113.727 5.73 113.067 6.41C112.417 7.09 112.092 7.955 112.092 9.005C112.092 10.055 112.417 10.92 113.067 11.6C113.727 12.28 114.552 12.62 115.542 12.62C116.072 12.62 116.562 12.485 117.012 12.215C117.462 11.945 117.812 11.595 118.062 11.165L119.562 11.93C118.602 13.43 117.262 14.18 115.542 14.18ZM129.306 12.725C128.346 13.695 127.121 14.18 125.631 14.18C124.141 14.18 122.916 13.695 121.956 12.725C120.996 11.745 120.516 10.505 120.516 9.005C120.516 7.505 120.996 6.27 121.956 5.3C122.916 4.32 124.141 3.83 125.631 3.83C127.121 3.83 128.346 4.32 129.306 5.3C130.266 6.27 130.746 7.505 130.746 9.005C130.746 10.505 130.266 11.745 129.306 12.725ZM125.631 12.62C126.621 12.62 127.421 12.28 128.031 11.6C128.641 10.91 128.946 10.045 128.946 9.005C128.946 7.955 128.641 7.09 128.031 6.41C127.421 5.73 126.621 5.39 125.631 5.39C124.631 5.39 123.826 5.73 123.216 6.41C122.616 7.09 122.316 7.955 122.316 9.005C122.316 10.055 122.616 10.92 123.216 11.6C123.826 12.28 124.631 12.62 125.631 12.62ZM142.831 14H141.076V6.575L138.001 14H137.251L134.191 6.575V14H132.436V3.995H134.911L137.626 10.58L140.356 3.995H142.831V14Z" fill="black"/>
<defs>
<linearGradient id="paint0_linear_5_81" x1="29" y1="26.5" x2="101" y2="12" gradientUnits="userSpaceOnUse">
<stop stop-color="#3563FF"/>
<stop offset="1" stop-color="#8BA6FF"/>
</linearGradient>
</defs>
</svg>
